<svg width="1024" height="1024" viewBox="0 0 1024 1024" fill="none" xmlns="http://www.w3.org/2000/svg">
<path d="M432.074 780.557C346.754 913.611 200.971 1004.56 33.3282 1015.29C24.6962 1016.08 16.1848 1012.9 9.91064 1006.95C3.59655 1000.99 0 992.648 0 984.307V35.0601C0 24.3364 5.67469 14.0091 14.986 8.44868C24.2972 2.49106 35.8851 2.09621 45.676 6.86231L532.261 263.435C543.451 270.187 555.239 276.543 567.588 282.103C715.169 347.637 888.525 281.706 954.464 135.149C956.342 130.78 958.062 126.806 959.701 122.834C885.41 249.136 725.24 302.756 587.489 241.591C671.53 105.757 817.914 12.0248 986.836 0.109563C996.427 -0.684786 1005.82 2.88901 1012.85 9.2438C1019.84 15.9958 1023.8 25.1323 1023.8 34.6645C1023.8 185.988 1024 798.428 1024 982.717C1024 994.632 1017.85 1005.76 1007.7 1011.71C997.505 1018.07 984.798 1018.86 974.008 1013.7C835.178 946.577 454.933 740.84 454.933 740.84L454.773 741.236C307.271 675.702 133.995 741.633 68.0964 888.19C66.2581 892.559 64.4995 896.533 62.8611 900.505C136.632 774.998 295.002 721.378 432.074 780.557Z" fill="#49BCE3"/>
</svg>
