<svg width="1024" height="250" viewBox="0 0 1024 250" fill="none" xmlns="http://www.w3.org/2000/svg">
<g clip-path="url(#clip0_170_14)">
<g clip-path="url(#clip1_170_14)">
<path fill-rule="evenodd" clip-rule="evenodd" d="M105.491 191.856C84.6607 224.562 49.0625 246.919 8.13393 249.552C6.02679 249.749 3.95536 248.972 2.41964 247.508C0.875 246.044 0 243.99 0 241.945V8.61634C0 5.98243 1.38393 3.44673 3.66071 2.08066C5.92857 0.616385 8.75893 0.518171 11.1518 1.68781L129.946 64.7499C132.679 66.4106 135.554 67.9731 138.571 69.3392C174.598 85.4463 216.929 69.241 233.027 33.2233C233.482 32.143 233.902 31.1698 234.304 30.1966C216.161 61.241 177.062 74.4195 143.429 59.3839C163.946 25.9912 199.687 2.95566 240.929 0.0271024C243.268 -0.169325 245.563 0.714599 247.277 2.26816C248.982 3.92887 249.955 6.17885 249.955 8.51812C249.955 45.7143 250 196.249 250 241.553C250 244.481 248.5 247.213 246.018 248.677C243.536 250.24 240.429 250.436 237.795 249.169C203.902 232.669 111.071 182.097 111.071 182.097L111.027 182.196C75.0179 166.089 32.7143 182.294 16.625 218.32C16.1786 219.392 15.75 220.365 15.3482 221.338C33.3571 190.49 72.0268 177.312 105.491 191.856Z" fill="url(#paint0_linear_170_14)"/>
<path fill-rule="evenodd" clip-rule="evenodd" d="M962.795 215.083C950.616 215.083 939.875 212.699 930.589 207.94C921.295 203.172 914.036 195.958 908.804 186.27C903.572 176.592 900.956 164.494 900.956 149.967C900.956 135.137 903.652 122.913 909.036 113.315C914.429 103.708 921.848 96.5654 931.295 91.8869C940.741 87.1994 951.393 84.8601 963.259 84.8601C975.598 84.8601 986.41 87.2351 995.696 92.0029C1004.99 96.7618 1012.21 103.949 1017.37 113.547C1022.52 123.155 1025.1 135.288 1025.1 149.967C1025.1 164.958 1022.37 177.297 1016.89 186.976C1011.44 196.654 1004.02 203.761 994.651 208.288C985.276 212.815 974.661 215.083 962.795 215.083ZM963.732 187.44C968.884 187.44 973.143 186.074 976.491 183.342C979.848 180.61 982.428 176.592 984.223 171.279C986.018 165.976 986.919 159.574 986.919 152.074C986.919 143.958 985.937 137.083 983.991 131.467C982.044 125.842 979.268 121.547 975.678 118.583C972.08 115.619 967.553 114.137 962.089 114.137C957.25 114.137 953.116 115.503 949.679 118.235C946.241 120.967 943.625 124.985 941.83 130.297C940.036 135.601 939.134 142.003 939.134 149.503C939.134 161.681 941.321 171.047 945.696 177.61C950.071 184.163 956.08 187.44 963.732 187.44Z" fill="white"/>
<path d="M827.838 87.6486H790.133V215.086H827.838V87.6486Z" fill="white"/>
<path d="M885.027 49.7196H847.322V215.076H885.027V49.7196Z" fill="white"/>
<path fill-rule="evenodd" clip-rule="evenodd" d="M808.994 34.1765C820.646 34.1765 830.11 43.6407 830.11 55.2925C830.11 66.9442 820.646 76.4084 808.994 76.4084C797.334 76.4084 787.878 66.9442 787.878 55.2925C787.878 43.6407 797.334 34.1765 808.994 34.1765Z" fill="white"/>
<path fill-rule="evenodd" clip-rule="evenodd" d="M667.448 215.085V182.652L726.939 121.403V119.242H668.618V88.2559H772.376V120.927L712.653 182.176V183.851H773.072V215.085H667.448Z" fill="white"/>
<path fill-rule="evenodd" clip-rule="evenodd" d="M630.207 215.078C615.68 215.078 604.913 211.337 597.886 203.837C590.859 196.346 587.341 184.632 587.341 168.703V118.114H572.582L572.824 92.5874H577.038C585.315 91.6499 591.243 89.1499 594.841 85.0874C598.431 81.0339 600.689 74.6321 601.627 65.8822L602.564 60.4983H624.35V88.6053H653.153V119.052H624.35V165.658C624.35 171.435 625.752 175.578 628.564 178.078C631.377 180.578 635.127 181.819 639.805 181.819C642.153 181.819 644.528 181.507 646.948 180.882C649.368 180.265 651.6 179.399 653.627 178.31V211.801C648.627 213.212 644.216 214.105 640.395 214.497C636.564 214.89 633.171 215.078 630.207 215.078Z" fill="white"/>
<path fill-rule="evenodd" clip-rule="evenodd" d="M484.557 155.886C485.101 166.003 487.36 173.556 491.333 178.547C495.941 184.324 502.619 187.208 511.36 187.208C515.262 187.208 518.503 186.743 521.083 185.806C523.655 184.868 525.762 183.502 527.405 181.708C529.048 179.913 530.217 177.761 530.922 175.261C531.619 172.77 532.047 170.038 532.208 167.065L565.869 167.538C565.708 172.851 565.271 181.163 563.476 186.386C561.681 191.618 558.672 196.386 554.458 200.681C550.244 204.976 544.583 208.449 537.476 211.1C530.369 213.752 521.664 215.083 511.36 215.083C499.958 215.083 490.28 213.484 482.316 210.279C474.351 207.083 467.834 202.627 462.762 196.931C457.682 191.235 453.977 184.592 451.637 177.02C449.289 169.449 448.119 161.288 448.119 152.547C448.119 143.333 449.334 134.628 451.753 126.431C454.173 118.235 457.878 111.047 462.878 104.878C467.878 98.7172 474.2 93.8333 481.851 90.244C489.503 86.6547 498.476 84.8601 508.789 84.8601C519.244 84.8601 528.262 86.6101 535.833 90.1279C543.414 93.6368 549.538 98.6368 554.226 105.119C558.904 111.592 563.297 119.03 564.86 127.771C566.422 136.512 567.413 146.378 566.012 156.681L484.557 155.886ZM530.181 138.271L485.485 137.717C485.887 135.503 486.387 133.422 487.003 131.467C488.717 126.003 491.414 121.788 495.083 118.815C498.753 115.851 503.396 114.369 509.021 114.369C514.173 114.369 518.423 115.619 521.78 118.119C525.137 120.61 527.521 124.324 528.931 129.244C529.69 131.896 530.101 134.904 530.181 138.271Z" fill="white"/>
<path fill-rule="evenodd" clip-rule="evenodd" d="M288.891 215.085V60.4963H339.016L397.337 164.96H398.507L397.802 60.4963H435.042V215.085H388.436L326.597 106.407H325.427L326.132 215.085H288.891Z" fill="white"/>
</g>
</g>
<defs>
<linearGradient id="paint0_linear_170_14" x1="250" y1="125" x2="0" y2="125" gradientUnits="userSpaceOnUse">
<stop stop-color="#0BA7FC"/>
<stop offset="1" stop-color="#50BFE0"/>
</linearGradient>
<clipPath id="clip0_170_14">
<rect width="1024" height="250" fill="white"/>
</clipPath>
<clipPath id="clip1_170_14">
<rect width="1024" height="250" fill="white"/>
</clipPath>
</defs>
</svg>
